<?xml version="1.0" encoding="UTF-8" standalone="no"?>
<!DOCTYPE svg PUBLIC "-//W3C//DTD SVG 1.1//EN"
 "http://www.w3.org/Graphics/SVG/1.1/DTD/svg11.dtd">
<!-- Generated by graphviz version 2.43.0 (0)
 -->
<!-- Title: deployment_architecture Pages: 1 -->
<svg width="952pt" height="1014pt"
 viewBox="0.00 0.00 951.80 1014.41" xmlns="http://www.w3.org/2000/svg" xmlns:xlink="http://www.w3.org/1999/xlink">
<g id="graph0" class="graph" transform="scale(1 1) rotate(0) translate(50.4 964.01)">
<title>deployment_architecture</title>
<polygon fill="#0d0d0d" stroke="transparent" points="-50.4,50.4 -50.4,-964.01 901.4,-964.01 901.4,50.4 -50.4,50.4"/>
<text text-anchor="middle" x="425.5" y="-893.61" font-family="Courier New" font-size="20.00" fill="#00ffff">GRYPHGEN Deployment Architecture &#160;— &#160;worlock</text>
<g id="clust1" class="cluster">
<title>cluster_internet</title>
<path fill="#111111" stroke="#444444" d="M226,-675.13C226,-675.13 424,-675.13 424,-675.13 430,-675.13 436,-681.13 436,-687.13 436,-687.13 436,-863.61 436,-863.61 436,-869.61 430,-875.61 424,-875.61 424,-875.61 226,-875.61 226,-875.61 220,-875.61 214,-869.61 214,-863.61 214,-863.61 214,-687.13 214,-687.13 214,-681.13 220,-675.13 226,-675.13"/>
<text text-anchor="middle" x="325" y="-855.61" font-family="Courier New" font-size="20.00" fill="#888888">Internet</text>
</g>
<g id="clust2" class="cluster">
<title>cluster_host</title>
<path fill="#001a1a" stroke="#00ffff" stroke-width="2" d="M20,-8C20,-8 831,-8 831,-8 837,-8 843,-14 843,-20 843,-20 843,-634.13 843,-634.13 843,-640.13 837,-646.13 831,-646.13 831,-646.13 20,-646.13 20,-646.13 14,-646.13 8,-640.13 8,-634.13 8,-634.13 8,-20 8,-20 8,-14 14,-8 20,-8"/>
<text text-anchor="middle" x="425.5" y="-626.13" font-family="Courier New" font-size="20.00" fill="#00ffff">worlock &#160;(Ubuntu 22.04 &#160;Linux 6.8.12)</text>
</g>
<g id="clust3" class="cluster">
<title>cluster_network</title>
<path fill="#0d1111" stroke="#555555" d="M489,-499.9C489,-499.9 823,-499.9 823,-499.9 829,-499.9 835,-505.9 835,-511.9 835,-511.9 835,-596.13 835,-596.13 835,-602.13 829,-608.13 823,-608.13 823,-608.13 489,-608.13 489,-608.13 483,-608.13 477,-602.13 477,-596.13 477,-596.13 477,-511.9 477,-511.9 477,-505.9 483,-499.9 489,-499.9"/>
<text text-anchor="middle" x="656" y="-588.13" font-family="Courier New" font-size="20.00" fill="#888888">Network</text>
</g>
<g id="clust4" class="cluster">
<title>cluster_services</title>
<path fill="#1a001a" stroke="#ff00ff" stroke-width="2" d="M28,-270.45C28,-270.45 457,-270.45 457,-270.45 463,-270.45 469,-276.45 469,-282.45 469,-282.45 469,-596.13 469,-596.13 469,-602.13 463,-608.13 457,-608.13 457,-608.13 28,-608.13 28,-608.13 22,-608.13 16,-602.13 16,-596.13 16,-596.13 16,-282.45 16,-282.45 16,-276.45 22,-270.45 28,-270.45"/>
<text text-anchor="middle" x="242.5" y="-588.13" font-family="Courier New" font-size="20.00" fill="#ff00ff">Systemd Services</text>
</g>
<g id="clust5" class="cluster">
<title>cluster_gpu</title>
<path fill="#1a0a00" stroke="#ff6600" stroke-width="2" d="M212,-126.25C212,-126.25 507,-126.25 507,-126.25 513,-126.25 519,-132.25 519,-138.25 519,-138.25 519,-239.45 519,-239.45 519,-245.45 513,-251.45 507,-251.45 507,-251.45 212,-251.45 212,-251.45 206,-251.45 200,-245.45 200,-239.45 200,-239.45 200,-138.25 200,-138.25 200,-132.25 206,-126.25 212,-126.25"/>
<text text-anchor="middle" x="359.5" y="-231.45" font-family="Courier New" font-size="20.00" fill="#ff6600">GPU Cluster</text>
</g>
<g id="clust6" class="cluster">
<title>cluster_models</title>
<path fill="#1a1a00" stroke="#ffff00" d="M37,-16C37,-16 555,-16 555,-16 561,-16 567,-22 567,-28 567,-28 567,-95.25 567,-95.25 567,-101.25 561,-107.25 555,-107.25 555,-107.25 37,-107.25 37,-107.25 31,-107.25 25,-101.25 25,-95.25 25,-95.25 25,-28 25,-28 25,-22 31,-16 37,-16"/>
<text text-anchor="middle" x="296" y="-87.25" font-family="Courier New" font-size="20.00" fill="#ffff00">Loaded Models</text>
</g>
<!-- client_browser -->
<g id="node1" class="node">
<title>client_browser</title>
<ellipse fill="#111111" stroke="#888888" stroke-width="2" cx="325" cy="-814.98" rx="97.66" ry="22.76"/>
<text text-anchor="middle" x="325" y="-818.18" font-family="Courier New" font-size="11.00" fill="#888888">API Client</text>
<text text-anchor="middle" x="325" y="-806.18" font-family="Courier New" font-size="11.00" fill="#888888">(gg&#45;wizard / curl)</text>
</g>
<!-- cf_edge -->
<g id="node2" class="node">
<title>cf_edge</title>
<ellipse fill="#111111" stroke="#ff8800" stroke-width="2" cx="325" cy="-714.24" rx="102.56" ry="31.23"/>
<text text-anchor="middle" x="325" y="-723.44" font-family="Courier New" font-size="11.00" fill="#ff8800">Cloudflare Edge</text>
<text text-anchor="middle" x="325" y="-711.44" font-family="Courier New" font-size="11.00" fill="#ff8800">https://api.grug.ai</text>
<text text-anchor="middle" x="325" y="-699.44" font-family="Courier New" font-size="11.00" fill="#ff8800">TLS termination</text>
</g>
<!-- client_browser&#45;&gt;cf_edge -->
<g id="edge1" class="edge">
<title>client_browser&#45;&gt;cf_edge</title>
<path fill="none" stroke="#ff8800" stroke-width="1.8" d="M325,-792.12C325,-792.12 325,-755.41 325,-755.41"/>
<polygon fill="#ff8800" stroke="#ff8800" stroke-width="1.8" points="328.5,-755.41 325,-745.41 321.5,-755.41 328.5,-755.41"/>
<text text-anchor="middle" x="352.5" y="-766.35" font-family="Courier New" font-size="10.00" fill="#ff8800">HTTPS 443</text>
</g>
<!-- cf_tunnel -->
<g id="node5" class="node">
<title>cf_tunnel</title>
<ellipse fill="#1a0a00" stroke="#ff8800" stroke-width="2" cx="325" cy="-539.01" rx="92.76" ry="31.23"/>
<text text-anchor="middle" x="325" y="-548.21" font-family="Courier New" font-size="11.00" fill="#ff8800">cloudflared</text>
<text text-anchor="middle" x="325" y="-536.21" font-family="Courier New" font-size="11.00" fill="#ff8800">Cloudflare tunnel</text>
<text text-anchor="middle" x="325" y="-524.21" font-family="Courier New" font-size="11.00" fill="#ff8800">→ localhost:8090</text>
</g>
<!-- cf_edge&#45;&gt;cf_tunnel -->
<g id="edge2" class="edge">
<title>cf_edge&#45;&gt;cf_tunnel</title>
<path fill="none" stroke="#ff8800" stroke-width="1.8" d="M325,-682.91C325,-682.91 325,-580.36 325,-580.36"/>
<polygon fill="#ff8800" stroke="#ff8800" stroke-width="1.8" points="328.5,-580.36 325,-570.36 321.5,-580.36 328.5,-580.36"/>
<text text-anchor="middle" x="343.5" y="-657.13" font-family="Courier New" font-size="10.00" fill="#ff8800">tunnel</text>
</g>
<!-- enp7s0 -->
<g id="node3" class="node">
<title>enp7s0</title>
<ellipse fill="#0d1111" stroke="#888888" stroke-width="2" cx="573" cy="-539.01" rx="88.28" ry="31.23"/>
<text text-anchor="middle" x="573" y="-548.21" font-family="Courier New" font-size="11.00" fill="#888888">enp7s0</text>
<text text-anchor="middle" x="573" y="-536.21" font-family="Courier New" font-size="11.00" fill="#888888">192.168.1.151/24</text>
<text text-anchor="middle" x="573" y="-524.21" font-family="Courier New" font-size="11.00" fill="#888888">ETH &#160;LAN</text>
</g>
<!-- svc_agentic -->
<g id="node6" class="node">
<title>svc_agentic</title>
<ellipse fill="#1a001a" stroke="#ff00ff" stroke-width="2" cx="325" cy="-429.79" rx="135.53" ry="31.23"/>
<text text-anchor="middle" x="325" y="-438.99" font-family="Courier New" font-size="11.00" fill="#ff00ff">gryphgen&#45;agentic</text>
<text text-anchor="middle" x="325" y="-426.99" font-family="Courier New" font-size="11.00" fill="#ff00ff">uvicorn &#160;:8090</text>
<text text-anchor="middle" x="325" y="-414.99" font-family="Courier New" font-size="11.00" fill="#ff00ff">/programs/gryphgen&#45;agentic</text>
</g>
<!-- enp7s0&#45;&gt;svc_agentic -->
<g id="edge4" class="edge">
<title>enp7s0&#45;&gt;svc_agentic</title>
<path fill="none" stroke="#888888" stroke-width="1.8" stroke-dasharray="5,2" d="M498,-522.22C498,-493.97 498,-440 498,-440 498,-440 463.45,-440 463.45,-440"/>
<polygon fill="#888888" stroke="#888888" stroke-width="1.8" points="463.45,-436.5 453.45,-440 463.45,-443.5 463.45,-436.5"/>
<text text-anchor="middle" x="506.5" y="-481.9" font-family="Courier New" font-size="10.00" fill="#888888">LAN direct</text>
</g>
<!-- wgpia0 -->
<g id="node4" class="node">
<title>wgpia0</title>
<ellipse fill="#0d1111" stroke="#888888" stroke-width="2" cx="753" cy="-539.01" rx="73.58" ry="31.23"/>
<text text-anchor="middle" x="753" y="-548.21" font-family="Courier New" font-size="11.00" fill="#888888">wgpia0</text>
<text text-anchor="middle" x="753" y="-536.21" font-family="Courier New" font-size="11.00" fill="#888888">PIA WireGuard</text>
<text text-anchor="middle" x="753" y="-524.21" font-family="Courier New" font-size="11.00" fill="#888888">VPN</text>
</g>
<!-- wgpia0&#45;&gt;svc_agentic -->
<g id="edge5" class="edge">
<title>wgpia0&#45;&gt;svc_agentic</title>
<path fill="none" stroke="#888888" stroke-width="1.8" stroke-dasharray="5,2" d="M753,-507.8C753,-472.24 753,-419 753,-419 753,-419 462.54,-419 462.54,-419"/>
<polygon fill="#888888" stroke="#888888" stroke-width="1.8" points="462.54,-415.5 452.54,-419 462.54,-422.5 462.54,-415.5"/>
<text text-anchor="middle" x="665.5" y="-481.9" font-family="Courier New" font-size="10.00" fill="#888888">VPN</text>
</g>
<!-- cf_tunnel&#45;&gt;svc_agentic -->
<g id="edge3" class="edge">
<title>cf_tunnel&#45;&gt;svc_agentic</title>
<path fill="none" stroke="#ff00ff" stroke-width="1.8" d="M325,-507.71C325,-507.71 325,-471.09 325,-471.09"/>
<polygon fill="#ff00ff" stroke="#ff00ff" stroke-width="1.8" points="328.5,-471.09 325,-461.09 321.5,-471.09 328.5,-471.09"/>
<text text-anchor="middle" x="340.5" y="-481.9" font-family="Courier New" font-size="10.00" fill="#ff00ff">:8090</text>
</g>
<!-- svc_ollama -->
<g id="node7" class="node">
<title>svc_ollama</title>
<ellipse fill="#1a1a00" stroke="#ffff00" stroke-width="2" cx="309" cy="-309.56" rx="126.64" ry="31.23"/>
<text text-anchor="middle" x="309" y="-318.76" font-family="Courier New" font-size="11.00" fill="#ffff00">ollama.service</text>
<text text-anchor="middle" x="309" y="-306.76" font-family="Courier New" font-size="11.00" fill="#ffff00">127.0.0.1:11434</text>
<text text-anchor="middle" x="309" y="-294.76" font-family="Courier New" font-size="11.00" fill="#ffff00">CUDA_VISIBLE_DEVICES=0,1</text>
</g>
<!-- svc_agentic&#45;&gt;svc_ollama -->
<g id="edge6" class="edge">
<title>svc_agentic&#45;&gt;svc_ollama</title>
<path fill="none" stroke="#ffff00" stroke-width="1.8" d="M312.4,-398.51C312.4,-398.51 312.4,-350.68 312.4,-350.68"/>
<polygon fill="#ffff00" stroke="#ffff00" stroke-width="1.8" points="315.9,-350.68 312.4,-340.68 308.9,-350.68 315.9,-350.68"/>
<text text-anchor="middle" x="361.5" y="-372.68" font-family="Courier New" font-size="10.00" fill="#ffff00">HTTP /api/chat</text>
<text text-anchor="middle" x="361.5" y="-361.68" font-family="Courier New" font-size="10.00" fill="#ffff00">/api/generate</text>
</g>
<!-- gpu0 -->
<g id="node9" class="node">
<title>gpu0</title>
<ellipse fill="#1a0800" stroke="#ff6600" stroke-width="2" cx="291" cy="-173.85" rx="83.38" ry="39.7"/>
<text text-anchor="middle" x="291" y="-189.05" font-family="Courier New" font-size="11.00" fill="#ff6600">RTX 5080</text>
<text text-anchor="middle" x="291" y="-177.05" font-family="Courier New" font-size="11.00" fill="#ff6600">16 GB VRAM</text>
<text text-anchor="middle" x="291" y="-165.05" font-family="Courier New" font-size="11.00" fill="#ff6600">GPU 0</text>
<text text-anchor="middle" x="291" y="-153.05" font-family="Courier New" font-size="11.00" fill="#ff6600">THINKER / AGENT</text>
</g>
<!-- svc_ollama&#45;&gt;gpu0 -->
<g id="edge7" class="edge">
<title>svc_ollama&#45;&gt;gpu0</title>
<path fill="none" stroke="#ff6600" stroke-width="1.8" d="M291,-278.43C291,-278.43 291,-223.61 291,-223.61"/>
<polygon fill="#ff6600" stroke="#ff6600" stroke-width="1.8" points="294.5,-223.61 291,-213.61 287.5,-223.61 294.5,-223.61"/>
</g>
<!-- gpu1 -->
<g id="node10" class="node">
<title>gpu1</title>
<ellipse fill="#1a0500" stroke="#ff4400" stroke-width="2" cx="452" cy="-173.85" rx="59.29" ry="39.7"/>
<text text-anchor="middle" x="452" y="-189.05" font-family="Courier New" font-size="11.00" fill="#ff4400">RTX 3080</text>
<text text-anchor="middle" x="452" y="-177.05" font-family="Courier New" font-size="11.00" fill="#ff4400">10 GB VRAM</text>
<text text-anchor="middle" x="452" y="-165.05" font-family="Courier New" font-size="11.00" fill="#ff4400">GPU 1</text>
<text text-anchor="middle" x="452" y="-153.05" font-family="Courier New" font-size="11.00" fill="#ff4400">CODER</text>
</g>
<!-- svc_ollama&#45;&gt;gpu1 -->
<g id="edge8" class="edge">
<title>svc_ollama&#45;&gt;gpu1</title>
<path fill="none" stroke="#ff4400" stroke-width="1.8" d="M414.09,-292.1C414.09,-292.1 414.09,-214.45 414.09,-214.45"/>
<polygon fill="#ff4400" stroke="#ff4400" stroke-width="1.8" points="417.59,-214.45 414.09,-204.45 410.59,-214.45 417.59,-214.45"/>
</g>
<!-- svc_openwebui -->
<g id="node8" class="node">
<title>svc_openwebui</title>
<ellipse fill="#0d0d1a" stroke="#6688ff" stroke-width="2" cx="98" cy="-429.79" rx="73.58" ry="31.23"/>
<text text-anchor="middle" x="98" y="-438.99" font-family="Courier New" font-size="11.00" fill="#6688ff">open&#45;webui</text>
<text text-anchor="middle" x="98" y="-426.99" font-family="Courier New" font-size="11.00" fill="#6688ff">Docker &#160;:3000</text>
<text text-anchor="middle" x="98" y="-414.99" font-family="Courier New" font-size="11.00" fill="#6688ff">host&#45;net</text>
</g>
<!-- svc_openwebui&#45;&gt;svc_ollama -->
<g id="edge12" class="edge">
<title>svc_openwebui&#45;&gt;svc_ollama</title>
<path fill="none" stroke="#6688ff" stroke-width="1.8" stroke-dasharray="5,2" d="M102.05,-398.68C102.05,-362.89 102.05,-309 102.05,-309 102.05,-309 172.36,-309 172.36,-309"/>
<polygon fill="#6688ff" stroke="#6688ff" stroke-width="1.8" points="172.36,-312.5 182.36,-309 172.36,-305.5 172.36,-312.5"/>
<text text-anchor="middle" x="194.5" y="-367.18" font-family="Courier New" font-size="10.00" fill="#6688ff">model UI</text>
</g>
<!-- deepseek -->
<g id="node11" class="node">
<title>deepseek</title>
<ellipse fill="#1a1500" stroke="#ffff00" stroke-width="2" cx="116" cy="-46.63" rx="83.38" ry="22.76"/>
<text text-anchor="middle" x="116" y="-49.83" font-family="Courier New" font-size="11.00" fill="#ffff00">deepseek&#45;r1:14b</text>
<text text-anchor="middle" x="116" y="-37.83" font-family="Courier New" font-size="11.00" fill="#ffff00">:11434 &#160;THINKER</text>
</g>
<!-- gpu0&#45;&gt;deepseek -->
<g id="edge9" class="edge">
<title>gpu0&#45;&gt;deepseek</title>
<path fill="none" stroke="#ffff00" stroke-width="1.8" stroke-dasharray="5,2" d="M212.51,-160.17C212.51,-127.19 212.51,-46 212.51,-46 212.51,-46 209.5,-46 209.5,-46"/>
<polygon fill="#ffff00" stroke="#ffff00" stroke-width="1.8" points="209.5,-42.5 199.5,-46 209.5,-49.5 209.5,-42.5"/>
</g>
<!-- devstral -->
<g id="node13" class="node">
<title>devstral</title>
<ellipse fill="#1a1a00" stroke="#ffe000" stroke-width="2" cx="291" cy="-46.63" rx="73.58" ry="22.76"/>
<text text-anchor="middle" x="291" y="-49.83" font-family="Courier New" font-size="11.00" fill="#ffe000">devstral:24b</text>
<text text-anchor="middle" x="291" y="-37.83" font-family="Courier New" font-size="11.00" fill="#ffe000">:11434 &#160;AGENT</text>
</g>
<!-- gpu0&#45;&gt;devstral -->
<g id="edge10" class="edge">
<title>gpu0&#45;&gt;devstral</title>
<path fill="none" stroke="#ffe000" stroke-width="1.8" stroke-dasharray="5,2" d="M291,-133.95C291,-133.95 291,-79.35 291,-79.35"/>
<polygon fill="#ffe000" stroke="#ffe000" stroke-width="1.8" points="294.5,-79.35 291,-69.35 287.5,-79.35 294.5,-79.35"/>
</g>
<!-- coder7b -->
<g id="node12" class="node">
<title>coder7b</title>
<ellipse fill="#1a0d00" stroke="#ff9900" stroke-width="2" cx="471" cy="-46.63" rx="88.28" ry="22.76"/>
<text text-anchor="middle" x="471" y="-49.83" font-family="Courier New" font-size="11.00" fill="#ff9900">qwen2.5&#45;coder:7b</text>
<text text-anchor="middle" x="471" y="-37.83" font-family="Courier New" font-size="11.00" fill="#ff9900">:11436 &#160;CODER</text>
</g>
<!-- gpu1&#45;&gt;coder7b -->
<g id="edge11" class="edge">
<title>gpu1&#45;&gt;coder7b</title>
<path fill="none" stroke="#ff9900" stroke-width="1.8" stroke-dasharray="5,2" d="M452,-133.95C452,-133.95 452,-78.99 452,-78.99"/>
<polygon fill="#ff9900" stroke="#ff9900" stroke-width="1.8" points="455.5,-78.99 452,-68.99 448.5,-78.99 455.5,-78.99"/>
</g>
</g>
</svg>
