<?xml version="1.0" encoding="UTF-8" standalone="no"?>
<!DOCTYPE svg PUBLIC "-//W3C//DTD SVG 1.1//EN"
 "http://www.w3.org/Graphics/SVG/1.1/DTD/svg11.dtd">
<!-- Generated by graphviz version 2.43.0 (0)
 -->
<!-- Title: code_generation_pipeline Pages: 1 -->
<svg width="2525pt" height="474pt"
 viewBox="0.00 0.00 2525.12 474.40" xmlns="http://www.w3.org/2000/svg" xmlns:xlink="http://www.w3.org/1999/xlink">
<g id="graph0" class="graph" transform="scale(1 1) rotate(0) translate(43.2 431.2)">
<title>code_generation_pipeline</title>
<polygon fill="#0d0d0d" stroke="transparent" points="-43.2,43.2 -43.2,-431.2 2481.92,-431.2 2481.92,43.2 -43.2,43.2"/>
<text text-anchor="middle" x="1219.36" y="-368" font-family="Courier New" font-size="20.00" fill="#ff00ff">Code Generation Pipeline &#160;— &#160;FAST / STANDARD / STRONG</text>
<g id="clust1" class="cluster">
<title>cluster_fast</title>
<path fill="#1a0d00" stroke="#ff9900" stroke-width="2" d="M720.74,-8C720.74,-8 898,-8 898,-8 904,-8 910,-14 910,-20 910,-20 910,-104 910,-104 910,-110 904,-116 898,-116 898,-116 720.74,-116 720.74,-116 714.74,-116 708.74,-110 708.74,-104 708.74,-104 708.74,-20 708.74,-20 708.74,-14 714.74,-8 720.74,-8"/>
<text text-anchor="middle" x="809.37" y="-96" font-family="Courier New" font-size="20.00" fill="#ff9900">FAST &#160;(&lt;8s)</text>
</g>
<g id="clust2" class="cluster">
<title>cluster_standard</title>
<path fill="#1a1200" stroke="#ffcc00" stroke-width="2" d="M701.64,-224C701.64,-224 1207.54,-224 1207.54,-224 1213.54,-224 1219.54,-230 1219.54,-236 1219.54,-236 1219.54,-338 1219.54,-338 1219.54,-344 1213.54,-350 1207.54,-350 1207.54,-350 701.64,-350 701.64,-350 695.64,-350 689.64,-344 689.64,-338 689.64,-338 689.64,-236 689.64,-236 689.64,-230 695.64,-224 701.64,-224"/>
<text text-anchor="middle" x="954.59" y="-330" font-family="Courier New" font-size="20.00" fill="#ffcc00">STANDARD &#160;(~15&#45;20s)</text>
</g>
<g id="clust3" class="cluster">
<title>cluster_strong</title>
<path fill="#1a1500" stroke="#ffff00" stroke-width="2" d="M729.93,-124C729.93,-124 1721.57,-124 1721.57,-124 1727.57,-124 1733.57,-130 1733.57,-136 1733.57,-136 1733.57,-204 1733.57,-204 1733.57,-210 1727.57,-216 1721.57,-216 1721.57,-216 729.93,-216 729.93,-216 723.93,-216 717.93,-210 717.93,-204 717.93,-204 717.93,-136 717.93,-136 717.93,-130 723.93,-124 729.93,-124"/>
<text text-anchor="middle" x="1225.75" y="-196" font-family="Courier New" font-size="20.00" fill="#ffff00">STRONG &#160;(~30&#45;90s)</text>
</g>
<!-- user -->
<g id="node1" class="node">
<title>user</title>
<path fill="#001a1a" stroke="#00ffff" stroke-width="2" d="M203.47,-199C203.47,-199 56.23,-199 56.23,-199 50.23,-199 41.54,-193.63 38.86,-188.27 38.86,-188.27 5.55,-121.73 5.55,-121.73 2.86,-116.37 6.18,-111 12.18,-111 12.18,-111 159.42,-111 159.42,-111 165.42,-111 174.1,-116.37 176.79,-121.73 176.79,-121.73 210.1,-188.27 210.1,-188.27 212.78,-193.63 209.47,-199 203.47,-199"/>
<text text-anchor="middle" x="107.82" y="-164.2" font-family="Courier New" font-size="11.00" fill="#00ffff">User Prompt</text>
<text text-anchor="middle" x="107.82" y="-152.2" font-family="Courier New" font-size="11.00" fill="#00ffff">via gg&#45;wizard</text>
<text text-anchor="middle" x="107.82" y="-140.2" font-family="Courier New" font-size="11.00" fill="#00ffff">or curl</text>
</g>
<!-- tier_select -->
<g id="node2" class="node">
<title>tier_select</title>
<path fill="#0d001a" stroke="#8800ff" stroke-width="2" d="M405.86,-184.72C405.86,-184.72 264.43,-157.28 264.43,-157.28 258.53,-156.14 258.53,-153.86 264.43,-152.72 264.43,-152.72 405.86,-125.28 405.86,-125.28 411.75,-124.14 423.53,-124.14 429.43,-125.28 429.43,-125.28 570.86,-152.72 570.86,-152.72 576.75,-153.86 576.75,-156.14 570.86,-157.28 570.86,-157.28 429.43,-184.72 429.43,-184.72 423.53,-185.86 411.75,-185.86 405.86,-184.72"/>
<text text-anchor="middle" x="417.64" y="-158.2" font-family="Courier New" font-size="11.00" fill="#8800ff">Tier Selection</text>
<text text-anchor="middle" x="417.64" y="-146.2" font-family="Courier New" font-size="11.00" fill="#8800ff">reasoning_effort field</text>
</g>
<!-- user&#45;&gt;tier_select -->
<g id="edge1" class="edge">
<title>user&#45;&gt;tier_select</title>
<path fill="none" stroke="#00ffff" stroke-width="2" d="M193.07,-153.89C208.54,-153.81 225.5,-153.82 247.65,-153.9"/>
<polygon fill="#00ffff" stroke="#00ffff" stroke-width="2" points="247.82,-157.4 257.84,-153.95 247.85,-150.4 247.82,-157.4"/>
</g>
<!-- fast_coder -->
<g id="node3" class="node">
<title>fast_coder</title>
<ellipse fill="#1a0d00" stroke="#ff9900" stroke-width="2" cx="809.37" cy="-47" rx="92.76" ry="31.23"/>
<text text-anchor="middle" x="809.37" y="-56.2" font-family="Courier New" font-size="11.00" fill="#ff9900">qwen2.5&#45;coder:7b</text>
<text text-anchor="middle" x="809.37" y="-44.2" font-family="Courier New" font-size="11.00" fill="#ff9900">Direct generation</text>
<text text-anchor="middle" x="809.37" y="-32.2" font-family="Courier New" font-size="11.00" fill="#ff9900">no planning</text>
</g>
<!-- tier_select&#45;&gt;fast_coder -->
<g id="edge2" class="edge">
<title>tier_select&#45;&gt;fast_coder</title>
<path fill="none" stroke="#ff9900" stroke-width="2" d="M460.79,-131.22C526.83,-95.95 561.01,-86.84 715.69,-61.88"/>
<polygon fill="#ff9900" stroke="#ff9900" stroke-width="2" points="716.24,-65.34 725.56,-60.29 715.13,-58.42 716.24,-65.34"/>
<text text-anchor="middle" x="640.14" y="-87" font-family="Courier New" font-size="10.00" fill="#ff9900">effort=none</text>
</g>
<!-- std_thinker -->
<g id="node4" class="node">
<title>std_thinker</title>
<ellipse fill="#1a1200" stroke="#ffcc00" stroke-width="2" cx="809.37" cy="-272" rx="111.95" ry="39.7"/>
<text text-anchor="middle" x="809.37" y="-287.2" font-family="Courier New" font-size="11.00" fill="#ffcc00">deepseek&#45;r1:14b</text>
<text text-anchor="middle" x="809.37" y="-275.2" font-family="Courier New" font-size="11.00" fill="#ffcc00">Structured brief</text>
<text text-anchor="middle" x="809.37" y="-263.2" font-family="Courier New" font-size="11.00" fill="#ffcc00">GOAL · FUNCTIONS</text>
<text text-anchor="middle" x="809.37" y="-251.2" font-family="Courier New" font-size="11.00" fill="#ffcc00">PATTERNS · EDGE_CASES</text>
</g>
<!-- tier_select&#45;&gt;std_thinker -->
<g id="edge3" class="edge">
<title>tier_select&#45;&gt;std_thinker</title>
<path fill="none" stroke="#ffcc00" stroke-width="2" d="M460.94,-178.64C524.09,-212.1 558.37,-222.49 701.38,-250.9"/>
<polygon fill="#ffcc00" stroke="#ffcc00" stroke-width="2" points="700.92,-254.38 711.41,-252.89 702.28,-247.51 700.92,-254.38"/>
<text text-anchor="middle" x="640.14" y="-233" font-family="Courier New" font-size="10.00" fill="#ffcc00">effort=medium</text>
</g>
<!-- str_thinker1 -->
<g id="node6" class="node">
<title>str_thinker1</title>
<ellipse fill="#1a1500" stroke="#ffff00" stroke-width="2" cx="809.37" cy="-155" rx="83.38" ry="22.76"/>
<text text-anchor="middle" x="809.37" y="-158.2" font-family="Courier New" font-size="11.00" fill="#ffff00">deepseek&#45;r1:14b</text>
<text text-anchor="middle" x="809.37" y="-146.2" font-family="Courier New" font-size="11.00" fill="#ffff00">Analyse + Plan</text>
</g>
<!-- tier_select&#45;&gt;str_thinker1 -->
<g id="edge4" class="edge">
<title>tier_select&#45;&gt;str_thinker1</title>
<path fill="none" stroke="#ffff00" stroke-width="2" d="M571,-152.7C605,-152.8 648.95,-153.22 715.32,-153.95"/>
<polygon fill="#ffff00" stroke="#ffff00" stroke-width="2" points="715.68,-157.45 725.72,-154.06 715.76,-150.45 715.68,-157.45"/>
<text text-anchor="middle" x="640.14" y="-158" font-family="Courier New" font-size="10.00" fill="#ffff00">effort=high</text>
</g>
<!-- response -->
<g id="node10" class="node">
<title>response</title>
<polygon fill="#001a0d" stroke="#00ff41" stroke-width="2" points="1968.57,-207 1762.57,-207 1762.57,-103 1974.57,-103 1974.57,-201 1968.57,-207"/>
<polyline fill="none" stroke="#00ff41" stroke-width="2" points="1968.57,-207 1968.57,-201 "/>
<polyline fill="none" stroke="#00ff41" stroke-width="2" points="1974.57,-201 1968.57,-201 "/>
<text text-anchor="middle" x="1868.57" y="-194.2" font-family="Courier New" font-size="11.00" fill="#00ff41">CodeGenerationResponse</text>
<text text-anchor="middle" x="1868.57" y="-182.2" font-family="Courier New" font-size="11.00" fill="#00ff41">{</text>
<text text-anchor="middle" x="1868.57" y="-170.2" font-family="Courier New" font-size="11.00" fill="#00ff41"> &#160;code: string,</text>
<text text-anchor="middle" x="1868.57" y="-158.2" font-family="Courier New" font-size="11.00" fill="#00ff41"> &#160;tier: FAST|STANDARD|STRONG,</text>
<text text-anchor="middle" x="1868.57" y="-146.2" font-family="Courier New" font-size="11.00" fill="#00ff41"> &#160;backend_used: string,</text>
<text text-anchor="middle" x="1868.57" y="-134.2" font-family="Courier New" font-size="11.00" fill="#00ff41"> &#160;tokens_used: int,</text>
<text text-anchor="middle" x="1868.57" y="-122.2" font-family="Courier New" font-size="11.00" fill="#00ff41"> &#160;generation_time: float</text>
<text text-anchor="middle" x="1868.57" y="-110.2" font-family="Courier New" font-size="11.00" fill="#00ff41">}</text>
</g>
<!-- fast_coder&#45;&gt;response -->
<g id="edge5" class="edge">
<title>fast_coder&#45;&gt;response</title>
<path fill="none" stroke="#00ff41" stroke-width="2" d="M899.17,-39.11C1438.57,8.04 1519.09,8.62 1753.17,-99.79"/>
<polygon fill="#00ff41" stroke="#00ff41" stroke-width="2" points="1751.74,-102.98 1762.28,-104.03 1754.69,-96.64 1751.74,-102.98"/>
</g>
<!-- std_coder -->
<g id="node5" class="node">
<title>std_coder</title>
<ellipse fill="#1a0d00" stroke="#ff9900" stroke-width="2" cx="1099.81" cy="-263" rx="111.95" ry="22.76"/>
<text text-anchor="middle" x="1099.81" y="-266.2" font-family="Courier New" font-size="11.00" fill="#ff9900">qwen2.5&#45;coder:7b</text>
<text text-anchor="middle" x="1099.81" y="-254.2" font-family="Courier New" font-size="11.00" fill="#ff9900">Implements from brief</text>
</g>
<!-- std_thinker&#45;&gt;std_coder -->
<g id="edge6" class="edge">
<title>std_thinker&#45;&gt;std_coder</title>
<path fill="none" stroke="#ff9900" stroke-width="2" d="M918.45,-281.13C937.46,-280.34 960.4,-278.37 991.95,-275.07"/>
<polygon fill="#ff9900" stroke="#ff9900" stroke-width="2" points="992.44,-278.54 1002.02,-274 991.7,-271.58 992.44,-278.54"/>
<text text-anchor="middle" x="954.59" y="-270" font-family="Courier New" font-size="10.00" fill="#ff9900">brief</text>
</g>
<!-- std_coder&#45;&gt;response -->
<g id="edge7" class="edge">
<title>std_coder&#45;&gt;response</title>
<path fill="none" stroke="#00ff41" stroke-width="2" d="M1206.06,-255.78C1546.9,-232.46 1629.12,-224.58 1752.61,-190"/>
<polygon fill="#00ff41" stroke="#00ff41" stroke-width="2" points="1753.68,-193.33 1762.35,-187.24 1751.77,-186.59 1753.68,-193.33"/>
</g>
<!-- str_coder1 -->
<g id="node7" class="node">
<title>str_coder1</title>
<ellipse fill="#1a0d00" stroke="#ff9900" stroke-width="2" cx="1099.81" cy="-155" rx="88.28" ry="22.76"/>
<text text-anchor="middle" x="1099.81" y="-158.2" font-family="Courier New" font-size="11.00" fill="#ff9900">qwen2.5&#45;coder:7b</text>
<text text-anchor="middle" x="1099.81" y="-146.2" font-family="Courier New" font-size="11.00" fill="#ff9900">Implement</text>
</g>
<!-- str_thinker1&#45;&gt;str_coder1 -->
<g id="edge8" class="edge">
<title>str_thinker1&#45;&gt;str_coder1</title>
<path fill="none" stroke="#ff9900" stroke-width="2" d="M891.69,-151.21C917.28,-150.81 947.66,-151.24 1001.21,-152.51"/>
<polygon fill="#ff9900" stroke="#ff9900" stroke-width="2" points="1001.41,-156.02 1011.49,-152.76 1001.58,-149.02 1001.41,-156.02"/>
<text text-anchor="middle" x="954.59" y="-158" font-family="Courier New" font-size="10.00" fill="#ff9900">plan</text>
</g>
<!-- str_thinker2 -->
<g id="node8" class="node">
<title>str_thinker2</title>
<ellipse fill="#1a1500" stroke="#ffdd00" stroke-width="2" cx="1361.97" cy="-155" rx="83.38" ry="22.76"/>
<text text-anchor="middle" x="1361.97" y="-158.2" font-family="Courier New" font-size="11.00" fill="#ffdd00">deepseek&#45;r1:14b</text>
<text text-anchor="middle" x="1361.97" y="-146.2" font-family="Courier New" font-size="11.00" fill="#ffdd00">Security Review</text>
</g>
<!-- str_coder1&#45;&gt;str_thinker2 -->
<g id="edge9" class="edge">
<title>str_coder1&#45;&gt;str_thinker2</title>
<path fill="none" stroke="#ffdd00" stroke-width="2" d="M1156.98,-137.67C1232.57,-115.51 1258.1,-113.68 1307.5,-132.18"/>
<polygon fill="#ffdd00" stroke="#ffdd00" stroke-width="2" points="1306.43,-135.52 1317.02,-135.87 1308.96,-128.99 1306.43,-135.52"/>
<text text-anchor="middle" x="1245.04" y="-158" font-family="Courier New" font-size="10.00" fill="#ffdd00">draft</text>
</g>
<!-- str_coder2 -->
<g id="node9" class="node">
<title>str_coder2</title>
<ellipse fill="#1a0d00" stroke="#ffaa00" stroke-width="2" cx="1627.99" cy="-155" rx="97.66" ry="22.76"/>
<text text-anchor="middle" x="1627.99" y="-158.2" font-family="Courier New" font-size="11.00" fill="#ffaa00">qwen2.5&#45;coder:7b</text>
<text text-anchor="middle" x="1627.99" y="-146.2" font-family="Courier New" font-size="11.00" fill="#ffaa00">Revise &#160;(up to 2×)</text>
</g>
<!-- str_thinker2&#45;&gt;str_coder2 -->
<g id="edge10" class="edge">
<title>str_thinker2&#45;&gt;str_coder2</title>
<path fill="none" stroke="#ffaa00" stroke-width="2" d="M1445.4,-152.97C1478.32,-152.21 1502.09,-151.75 1521.22,-151.6"/>
<polygon fill="#ffaa00" stroke="#ffaa00" stroke-width="2" points="1521.42,-155.09 1531.4,-151.54 1521.38,-148.09 1521.42,-155.09"/>
<text text-anchor="middle" x="1487.91" y="-169" font-family="Courier New" font-size="10.00" fill="#ffaa00">review</text>
<text text-anchor="middle" x="1487.91" y="-158" font-family="Courier New" font-size="10.00" fill="#ffaa00">feedback</text>
</g>
<!-- str_coder2&#45;&gt;response -->
<g id="edge11" class="edge">
<title>str_coder2&#45;&gt;response</title>
<path fill="none" stroke="#00ff41" stroke-width="2" d="M1725.58,-153.78C1735.48,-153.67 1744.31,-153.59 1752.31,-153.52"/>
<polygon fill="#00ff41" stroke="#00ff41" stroke-width="2" points="1752.39,-157.02 1762.36,-153.44 1752.33,-150.02 1752.39,-157.02"/>
</g>
<!-- wizard_result -->
<g id="node11" class="node">
<title>wizard_result</title>
<path fill="#1a001a" stroke="#ff00ff" stroke-width="2" d="M2426.79,-199C2426.79,-199 2110.93,-199 2110.93,-199 2104.93,-199 2094.7,-194.74 2090.47,-190.49 2090.47,-190.49 2019.96,-119.51 2019.96,-119.51 2015.73,-115.26 2017.5,-111 2023.5,-111 2023.5,-111 2339.36,-111 2339.36,-111 2345.36,-111 2355.59,-115.26 2359.82,-119.51 2359.82,-119.51 2430.33,-190.49 2430.33,-190.49 2434.56,-194.74 2432.79,-199 2426.79,-199"/>
<text text-anchor="middle" x="2225.15" y="-164.2" font-family="Courier New" font-size="11.00" fill="#ff00ff">gg&#45;wizard Result Screen</text>
<text text-anchor="middle" x="2225.15" y="-152.2" font-family="Courier New" font-size="11.00" fill="#ff00ff">tier · time · tokens · model</text>
<text text-anchor="middle" x="2225.15" y="-140.2" font-family="Courier New" font-size="11.00" fill="#ff00ff">↑↓ scroll output</text>
</g>
<!-- response&#45;&gt;wizard_result -->
<g id="edge12" class="edge">
<title>response&#45;&gt;wizard_result</title>
<path fill="none" stroke="#ff00ff" stroke-width="2" d="M1974.64,-154.14C2001.69,-153.92 2024.25,-153.76 2043.62,-153.65"/>
<polygon fill="#ff00ff" stroke="#ff00ff" stroke-width="2" points="2043.78,-157.15 2053.76,-153.59 2043.74,-150.15 2043.78,-157.15"/>
</g>
</g>
</svg>
