<?xml version="1.0" encoding="UTF-8" standalone="no"?>
<!DOCTYPE svg PUBLIC "-//W3C//DTD SVG 1.1//EN"
 "http://www.w3.org/Graphics/SVG/1.1/DTD/svg11.dtd">
<!-- Generated by graphviz version 2.43.0 (0)
 -->
<!-- Title: agent_prose_fix Pages: 1 -->
<svg width="2036pt" height="218pt"
 viewBox="0.00 0.00 2035.71 218.00" xmlns="http://www.w3.org/2000/svg" xmlns:xlink="http://www.w3.org/1999/xlink">
<g id="graph0" class="graph" transform="scale(1 1) rotate(0) translate(36 182)">
<title>agent_prose_fix</title>
<polygon fill="#0d0d0d" stroke="transparent" points="-36,36 -36,-182 1999.71,-182 1999.71,36 -36,36"/>
<text text-anchor="middle" x="981.86" y="-127.6" font-family="Courier New" font-size="18.00" fill="#ffff00">Bug Fix 3 &#160;— &#160;Agent Returns Prose Instead of Tool Calls</text>
<g id="clust1" class="cluster">
<title>cluster_before</title>
<path fill="#1a0000" stroke="#ff0044" stroke-width="2" d="M20,-8C20,-8 676.23,-8 676.23,-8 682.23,-8 688.23,-14 688.23,-20 688.23,-20 688.23,-98 688.23,-98 688.23,-104 682.23,-110 676.23,-110 676.23,-110 20,-110 20,-110 14,-110 8,-104 8,-98 8,-98 8,-20 8,-20 8,-14 14,-8 20,-8"/>
<text text-anchor="middle" x="348.12" y="-91.6" font-family="Courier New" font-size="18.00" fill="#ff0044">Before: Passive System Prompt</text>
</g>
<g id="clust2" class="cluster">
<title>cluster_after</title>
<path fill="#001a0d" stroke="#00ff41" stroke-width="2" d="M1053.23,-8C1053.23,-8 1943.71,-8 1943.71,-8 1949.71,-8 1955.71,-14 1955.71,-20 1955.71,-20 1955.71,-98 1955.71,-98 1955.71,-104 1949.71,-110 1943.71,-110 1943.71,-110 1053.23,-110 1053.23,-110 1047.23,-110 1041.23,-104 1041.23,-98 1041.23,-98 1041.23,-20 1041.23,-20 1041.23,-14 1047.23,-8 1053.23,-8"/>
<text text-anchor="middle" x="1498.47" y="-91.6" font-family="Courier New" font-size="18.00" fill="#00ff41">After: Imperative System Prompt</text>
</g>
<!-- old_prompt -->
<g id="node1" class="node">
<title>old_prompt</title>
<polygon fill="#1a0000" stroke="#ff0044" stroke-width="2" points="189,-65.5 16,-65.5 16,-24.5 195,-24.5 195,-59.5 189,-65.5"/>
<polyline fill="none" stroke="#ff0044" stroke-width="2" points="189,-65.5 189,-59.5 "/>
<polyline fill="none" stroke="#ff0044" stroke-width="2" points="195,-59.5 189,-59.5 "/>
<text text-anchor="middle" x="105.5" y="-53.5" font-family="Courier New" font-size="10.00" fill="#ff0044">&quot;You are a helpful agent.</text>
<text text-anchor="middle" x="105.5" y="-42.5" font-family="Courier New" font-size="10.00" fill="#ff0044">Use tools when appropriate.</text>
<text text-anchor="middle" x="105.5" y="-31.5" font-family="Courier New" font-size="10.00" fill="#ff0044">Plan your approach first.&quot;</text>
</g>
<!-- devstral_before -->
<g id="node2" class="node">
<title>devstral_before</title>
<polygon fill="#1a0000" stroke="#ff3300" stroke-width="2" points="435,-71 232,-71 232,-19 441,-19 441,-65 435,-71"/>
<polyline fill="none" stroke="#ff3300" stroke-width="2" points="435,-71 435,-65 "/>
<polyline fill="none" stroke="#ff3300" stroke-width="2" points="441,-65 435,-65 "/>
<text text-anchor="middle" x="336.5" y="-59" font-family="Courier New" font-size="10.00" fill="#ff3300">devstral:24b output</text>
<text text-anchor="middle" x="336.5" y="-48" font-family="Courier New" font-size="10.00" fill="#ff3300">&quot;I will analyze this task.</text>
<text text-anchor="middle" x="336.5" y="-37" font-family="Courier New" font-size="10.00" fill="#ff3300">First, I would list the files...</text>
<text text-anchor="middle" x="336.5" y="-26" font-family="Courier New" font-size="10.00" fill="#ff3300">Then I would read...&quot;</text>
</g>
<!-- old_prompt&#45;&gt;devstral_before -->
<g id="edge1" class="edge">
<title>old_prompt&#45;&gt;devstral_before</title>
<path fill="none" stroke="#ff3300" stroke-width="1.5" d="M195.04,-45C203.82,-45 212.81,-45 221.8,-45"/>
<polygon fill="#ff3300" stroke="#ff3300" stroke-width="1.5" points="221.93,-48.5 231.93,-45 221.93,-41.5 221.93,-48.5"/>
</g>
<!-- trace_empty -->
<g id="node3" class="node">
<title>trace_empty</title>
<ellipse fill="#1a0000" stroke="#ff0044" stroke-width="2" cx="579.12" cy="-45" rx="101.23" ry="28.98"/>
<text text-anchor="middle" x="579.12" y="-53.5" font-family="Courier New" font-size="10.00" fill="#ff0044">tool_calls = []</text>
<text text-anchor="middle" x="579.12" y="-42.5" font-family="Courier New" font-size="10.00" fill="#ff0044">trace = []</text>
<text text-anchor="middle" x="579.12" y="-31.5" font-family="Courier New" font-size="10.00" fill="#ff0044">(zero steps executed)</text>
</g>
<!-- devstral_before&#45;&gt;trace_empty -->
<g id="edge2" class="edge">
<title>devstral_before&#45;&gt;trace_empty</title>
<path fill="none" stroke="#ff0044" stroke-width="1.5" d="M441.29,-45C449.97,-45 458.78,-45 467.51,-45"/>
<polygon fill="#ff0044" stroke="#ff0044" stroke-width="1.5" points="467.72,-48.5 477.72,-45 467.72,-41.5 467.72,-48.5"/>
</g>
<!-- root -->
<g id="node7" class="node">
<title>root</title>
<polygon fill="#1a1500" stroke="#ffff00" stroke-width="2" points="896.23,-71 717.23,-71 717.23,-19 902.23,-19 902.23,-65 896.23,-71"/>
<polyline fill="none" stroke="#ffff00" stroke-width="2" points="896.23,-71 896.23,-65 "/>
<polyline fill="none" stroke="#ffff00" stroke-width="2" points="902.23,-65 896.23,-65 "/>
<text text-anchor="middle" x="809.73" y="-59" font-family="Courier New" font-size="10.00" fill="#ffff00">Root Cause</text>
<text text-anchor="middle" x="809.73" y="-48" font-family="Courier New" font-size="10.00" fill="#ffff00">LLMs default to</text>
<text text-anchor="middle" x="809.73" y="-37" font-family="Courier New" font-size="10.00" fill="#ffff00">descriptive mode unless</text>
<text text-anchor="middle" x="809.73" y="-26" font-family="Courier New" font-size="10.00" fill="#ffff00">explicitly forced imperative</text>
</g>
<!-- trace_empty&#45;&gt;root -->
<g id="edge3" class="edge">
<title>trace_empty&#45;&gt;root</title>
<path fill="none" stroke="#ffff00" stroke-width="1.5" stroke-dasharray="5,2" d="M680.39,-45C689.19,-45 698.09,-45 706.9,-45"/>
<polygon fill="#ffff00" stroke="#ffff00" stroke-width="1.5" points="707.18,-48.5 717.18,-45 707.18,-41.5 707.18,-48.5"/>
</g>
<!-- new_prompt -->
<g id="node4" class="node">
<title>new_prompt</title>
<polygon fill="#001a0d" stroke="#00ff41" stroke-width="2" points="1318.23,-71 1049.23,-71 1049.23,-19 1324.23,-19 1324.23,-65 1318.23,-71"/>
<polyline fill="none" stroke="#00ff41" stroke-width="2" points="1318.23,-71 1318.23,-65 "/>
<polyline fill="none" stroke="#00ff41" stroke-width="2" points="1324.23,-65 1318.23,-65 "/>
<text text-anchor="middle" x="1186.73" y="-59" font-family="Courier New" font-size="10.00" fill="#00ff41">&quot;You MUST use tools for every action.</text>
<text text-anchor="middle" x="1186.73" y="-48" font-family="Courier New" font-size="10.00" fill="#00ff41">NEVER describe what you would do — DO IT.</text>
<text text-anchor="middle" x="1186.73" y="-37" font-family="Courier New" font-size="10.00" fill="#00ff41">NEVER ask the user a question.</text>
<text text-anchor="middle" x="1186.73" y="-26" font-family="Courier New" font-size="10.00" fill="#00ff41">Call list_dir IMMEDIATELY as first action.&quot;</text>
</g>
<!-- devstral_after -->
<g id="node5" class="node">
<title>devstral_after</title>
<polygon fill="#001a0d" stroke="#00cc33" stroke-width="2" points="1558.23,-65.5 1361.23,-65.5 1361.23,-24.5 1564.23,-24.5 1564.23,-59.5 1558.23,-65.5"/>
<polyline fill="none" stroke="#00cc33" stroke-width="2" points="1558.23,-65.5 1558.23,-59.5 "/>
<polyline fill="none" stroke="#00cc33" stroke-width="2" points="1564.23,-59.5 1558.23,-59.5 "/>
<text text-anchor="middle" x="1462.73" y="-53.5" font-family="Courier New" font-size="10.00" fill="#00cc33">devstral:24b output</text>
<text text-anchor="middle" x="1462.73" y="-42.5" font-family="Courier New" font-size="10.00" fill="#00cc33">tool_calls: [{name: &#39;list_dir&#39;,</text>
<text text-anchor="middle" x="1462.73" y="-31.5" font-family="Courier New" font-size="10.00" fill="#00cc33"> &#160;arguments: {path: &#39;.&#39;}}]</text>
</g>
<!-- new_prompt&#45;&gt;devstral_after -->
<g id="edge5" class="edge">
<title>new_prompt&#45;&gt;devstral_after</title>
<path fill="none" stroke="#00cc33" stroke-width="1.5" d="M1324.33,-45C1333.2,-45 1342.06,-45 1350.78,-45"/>
<polygon fill="#00cc33" stroke="#00cc33" stroke-width="1.5" points="1350.94,-48.5 1360.94,-45 1350.94,-41.5 1350.94,-48.5"/>
</g>
<!-- trace_full -->
<g id="node6" class="node">
<title>trace_full</title>
<ellipse fill="#001a0d" stroke="#00ff41" stroke-width="2" cx="1774.47" cy="-45" rx="173.48" ry="28.98"/>
<text text-anchor="middle" x="1774.47" y="-53.5" font-family="Courier New" font-size="10.00" fill="#00ff41">tool_calls → dispatch</text>
<text text-anchor="middle" x="1774.47" y="-42.5" font-family="Courier New" font-size="10.00" fill="#00ff41">trace: [{step:1,tool:&#39;list_dir&#39;,...},</text>
<text text-anchor="middle" x="1774.47" y="-31.5" font-family="Courier New" font-size="10.00" fill="#00ff41"> &#160;&#160;&#160;&#160;&#160;&#160;&#160;{step:2,tool:&#39;read_file&#39;,...}]</text>
</g>
<!-- devstral_after&#45;&gt;trace_full -->
<g id="edge6" class="edge">
<title>devstral_after&#45;&gt;trace_full</title>
<path fill="none" stroke="#00ff41" stroke-width="1.5" d="M1564.3,-45C1572.96,-45 1581.88,-45 1590.94,-45"/>
<polygon fill="#00ff41" stroke="#00ff41" stroke-width="1.5" points="1591.21,-48.5 1601.21,-45 1591.21,-41.5 1591.21,-48.5"/>
</g>
<!-- root&#45;&gt;new_prompt -->
<g id="edge4" class="edge">
<title>root&#45;&gt;new_prompt</title>
<path fill="none" stroke="#00ff41" stroke-width="1.5" d="M902.47,-45C943.58,-45 993.08,-45 1039.13,-45"/>
<polygon fill="#00ff41" stroke="#00ff41" stroke-width="1.5" points="1039.2,-48.5 1049.2,-45 1039.2,-41.5 1039.2,-48.5"/>
<text text-anchor="middle" x="975.73" y="-47.8" font-family="Courier New" font-size="9.00" fill="#00ff41">rewrite system prompt</text>
</g>
</g>
</svg>
