<?xml version="1.0" encoding="UTF-8" standalone="no"?>
<!DOCTYPE svg PUBLIC "-//W3C//DTD SVG 1.1//EN"
 "http://www.w3.org/Graphics/SVG/1.1/DTD/svg11.dtd">
<!-- Generated by graphviz version 2.43.0 (0)
 -->
<!-- Title: session3_ollama_duel Pages: 1 -->
<svg width="1830pt" height="623pt"
 viewBox="0.00 0.00 1830.00 622.50" xmlns="http://www.w3.org/2000/svg" xmlns:xlink="http://www.w3.org/1999/xlink">
<g id="graph0" class="graph" transform="scale(1 1) rotate(0) translate(36 586.5)">
<title>session3_ollama_duel</title>
<polygon fill="#0d0d0d" stroke="transparent" points="-36,36 -36,-586.5 1794,-586.5 1794,36 -36,36"/>
<text text-anchor="middle" x="879" y="-532.1" font-family="Courier New" font-size="18.00" fill="#ff6600">Session 3 — ollama&#45;duel &#160;Tokio Async Architecture</text>
<g id="clust1" class="cluster">
<title>cluster_main</title>
<path fill="#001a1a" stroke="#00ffff" stroke-width="2" d="M692,-305.53C692,-305.53 981,-305.53 981,-305.53 987,-305.53 993,-311.53 993,-317.53 993,-317.53 993,-502.5 993,-502.5 993,-508.5 987,-514.5 981,-514.5 981,-514.5 692,-514.5 692,-514.5 686,-514.5 680,-508.5 680,-502.5 680,-502.5 680,-317.53 680,-317.53 680,-311.53 686,-305.53 692,-305.53"/>
<text text-anchor="middle" x="836.5" y="-496.1" font-family="Courier New" font-size="18.00" fill="#00ffff">main.rs &#160;(tokio::main)</text>
</g>
<g id="clust2" class="cluster">
<title>cluster_app</title>
<path fill="#1a0a00" stroke="#ff6600" stroke-width="2" d="M821,-15.78C821,-15.78 1279,-15.78 1279,-15.78 1285,-15.78 1291,-21.78 1291,-27.78 1291,-27.78 1291,-243.52 1291,-243.52 1291,-249.52 1285,-255.52 1279,-255.52 1279,-255.52 821,-255.52 821,-255.52 815,-255.52 809,-249.52 809,-243.52 809,-243.52 809,-27.78 809,-27.78 809,-21.78 815,-15.78 821,-15.78"/>
<text text-anchor="middle" x="1050" y="-237.12" font-family="Courier New" font-size="18.00" fill="#ff6600">app.rs &#160;(App state + event loop)</text>
</g>
<g id="clust3" class="cluster">
<title>cluster_bg</title>
<path fill="#1a001a" stroke="#ff00ff" stroke-width="2" d="M1311,-15.78C1311,-15.78 1722,-15.78 1722,-15.78 1728,-15.78 1734,-21.78 1734,-27.78 1734,-27.78 1734,-502.5 1734,-502.5 1734,-508.5 1728,-514.5 1722,-514.5 1722,-514.5 1311,-514.5 1311,-514.5 1305,-514.5 1299,-508.5 1299,-502.5 1299,-502.5 1299,-27.78 1299,-27.78 1299,-21.78 1305,-15.78 1311,-15.78"/>
<text text-anchor="middle" x="1516.5" y="-496.1" font-family="Courier New" font-size="18.00" fill="#ff00ff">actor_critic.rs &#160;(background task)</text>
</g>
<g id="clust4" class="cluster">
<title>cluster_ui</title>
<path fill="#111111" stroke="#444444" d="M20,-8C20,-8 789,-8 789,-8 795,-8 801,-14 801,-20 801,-20 801,-113.54 801,-113.54 801,-119.54 795,-125.54 789,-125.54 789,-125.54 20,-125.54 20,-125.54 14,-125.54 8,-119.54 8,-113.54 8,-113.54 8,-20 8,-20 8,-14 14,-8 20,-8"/>
<text text-anchor="middle" x="404.5" y="-107.14" font-family="Courier New" font-size="18.00" fill="#00ffff">ui.rs &#160;(Ratatui render)</text>
</g>
<!-- cli -->
<g id="node1" class="node">
<title>cli</title>
<ellipse fill="#001a1a" stroke="#00ffff" stroke-width="2" cx="836" cy="-449.51" rx="84.29" ry="28.98"/>
<text text-anchor="middle" x="836" y="-458.01" font-family="Courier New" font-size="10.00" fill="#00ffff">clap CLI</text>
<text text-anchor="middle" x="836" y="-447.01" font-family="Courier New" font-size="10.00" fill="#00ffff">&#45;&#45;actor &#45;&#45;critic</text>
<text text-anchor="middle" x="836" y="-436.01" font-family="Courier New" font-size="10.00" fill="#00ffff">&#45;&#45;ollama &#45;&#45;config</text>
</g>
<!-- tracing -->
<g id="node2" class="node">
<title>tracing</title>
<polygon fill="#001a0d" stroke="#00ff88" stroke-width="2" points="801.5,-368.52 688.5,-368.52 688.5,-316.52 807.5,-316.52 807.5,-362.52 801.5,-368.52"/>
<polyline fill="none" stroke="#00ff88" stroke-width="2" points="801.5,-368.52 801.5,-362.52 "/>
<polyline fill="none" stroke="#00ff88" stroke-width="2" points="807.5,-362.52 801.5,-362.52 "/>
<text text-anchor="middle" x="748" y="-356.52" font-family="Courier New" font-size="10.00" fill="#00ff88">tracing_appender</text>
<text text-anchor="middle" x="748" y="-345.52" font-family="Courier New" font-size="10.00" fill="#00ff88">~/.local/share/</text>
<text text-anchor="middle" x="748" y="-334.52" font-family="Courier New" font-size="10.00" fill="#00ff88">ollama&#45;duel/</text>
<text text-anchor="middle" x="748" y="-323.52" font-family="Courier New" font-size="10.00" fill="#00ff88">rolling daily log</text>
</g>
<!-- cli&#45;&gt;tracing -->
<g id="edge2" class="edge">
<title>cli&#45;&gt;tracing</title>
<path fill="none" stroke="#00ff88" stroke-width="1.5" stroke-dasharray="5,2" d="M813.34,-421.48C801.82,-407.74 787.73,-390.93 775.59,-376.44"/>
<polygon fill="#00ff88" stroke="#00ff88" stroke-width="1.5" points="778.18,-374.08 769.07,-368.67 772.82,-378.58 778.18,-374.08"/>
</g>
<!-- terminal -->
<g id="node3" class="node">
<title>terminal</title>
<ellipse fill="#001a1a" stroke="#00ccff" stroke-width="2" cx="905" cy="-342.52" rx="79.81" ry="28.98"/>
<text text-anchor="middle" x="905" y="-351.02" font-family="Courier New" font-size="10.00" fill="#00ccff">crossterm</text>
<text text-anchor="middle" x="905" y="-340.02" font-family="Courier New" font-size="10.00" fill="#00ccff">raw mode</text>
<text text-anchor="middle" x="905" y="-329.02" font-family="Courier New" font-size="10.00" fill="#00ccff">alternate screen</text>
</g>
<!-- cli&#45;&gt;terminal -->
<g id="edge1" class="edge">
<title>cli&#45;&gt;terminal</title>
<path fill="none" stroke="#00ccff" stroke-width="1.5" d="M854.13,-420.93C862.45,-408.27 872.42,-393.09 881.32,-379.55"/>
<polygon fill="#00ccff" stroke="#00ccff" stroke-width="1.5" points="884.42,-381.2 886.99,-370.92 878.58,-377.36 884.42,-381.2"/>
</g>
<!-- event_loop -->
<g id="node4" class="node">
<title>event_loop</title>
<ellipse fill="#1a0a00" stroke="#ff6600" stroke-width="2" cx="905" cy="-190.53" rx="88.28" ry="28.98"/>
<text text-anchor="middle" x="905" y="-199.03" font-family="Courier New" font-size="10.00" fill="#ff6600">tokio::select!</text>
<text text-anchor="middle" x="905" y="-188.03" font-family="Courier New" font-size="10.00" fill="#ff6600">crossterm events</text>
<text text-anchor="middle" x="905" y="-177.03" font-family="Courier New" font-size="10.00" fill="#ff6600">mpsc rx &#160;16ms tick</text>
</g>
<!-- terminal&#45;&gt;event_loop -->
<g id="edge3" class="edge">
<title>terminal&#45;&gt;event_loop</title>
<path fill="none" stroke="#ff6600" stroke-width="1.5" d="M905,-313.31C905,-289.74 905,-255.91 905,-229.88"/>
<polygon fill="#ff6600" stroke="#ff6600" stroke-width="1.5" points="908.5,-229.62 905,-219.62 901.5,-229.62 908.5,-229.62"/>
</g>
<!-- mcp_init -->
<g id="node5" class="node">
<title>mcp_init</title>
<ellipse fill="#1a0a00" stroke="#ff8800" stroke-width="2" cx="884" cy="-52.77" rx="67.35" ry="28.98"/>
<text text-anchor="middle" x="884" y="-61.27" font-family="Courier New" font-size="10.00" fill="#ff8800">MCP init</text>
<text text-anchor="middle" x="884" y="-50.27" font-family="Courier New" font-size="10.00" fill="#ff8800">spawn servers</text>
<text text-anchor="middle" x="884" y="-39.27" font-family="Courier New" font-size="10.00" fill="#ff8800">tool registry</text>
</g>
<!-- event_loop&#45;&gt;mcp_init -->
<g id="edge4" class="edge">
<title>event_loop&#45;&gt;mcp_init</title>
<path fill="none" stroke="#ff8800" stroke-width="1.5" d="M900.65,-161.4C897.54,-141.29 893.31,-113.98 889.9,-91.91"/>
<polygon fill="#ff8800" stroke="#ff8800" stroke-width="1.5" points="893.33,-91.21 888.35,-81.86 886.42,-92.28 893.33,-91.21"/>
<text text-anchor="middle" x="915.5" y="-136.34" font-family="Courier New" font-size="9.00" fill="#ff8800">startup</text>
</g>
<!-- submit -->
<g id="node6" class="node">
<title>submit</title>
<ellipse fill="#1a0500" stroke="#ff4400" stroke-width="2" cx="1195" cy="-52.77" rx="88.28" ry="28.98"/>
<text text-anchor="middle" x="1195" y="-61.27" font-family="Courier New" font-size="10.00" fill="#ff4400">on_submit()</text>
<text text-anchor="middle" x="1195" y="-50.27" font-family="Courier New" font-size="10.00" fill="#ff4400">spawn tokio task</text>
<text text-anchor="middle" x="1195" y="-39.27" font-family="Courier New" font-size="10.00" fill="#ff4400">run_actor_critic()</text>
</g>
<!-- event_loop&#45;&gt;submit -->
<g id="edge5" class="edge">
<title>event_loop&#45;&gt;submit</title>
<path fill="none" stroke="#ff4400" stroke-width="1.5" d="M974.12,-172.37C1011.9,-161.59 1058.83,-145.86 1098,-125.54 1118.61,-114.84 1139.57,-99.95 1156.69,-86.51"/>
<polygon fill="#ff4400" stroke="#ff4400" stroke-width="1.5" points="1159.15,-89.02 1164.78,-80.05 1154.78,-83.55 1159.15,-89.02"/>
<text text-anchor="middle" x="1102" y="-136.34" font-family="Courier New" font-size="9.00" fill="#ff4400">Enter key</text>
</g>
<!-- conv_scroll -->
<g id="node7" class="node">
<title>conv_scroll</title>
<polygon fill="#1a0a00" stroke="#ff6600" stroke-width="2" points="1082.5,-73.27 969.5,-73.27 969.5,-32.27 1088.5,-32.27 1088.5,-67.27 1082.5,-73.27"/>
<polyline fill="none" stroke="#ff6600" stroke-width="2" points="1082.5,-73.27 1082.5,-67.27 "/>
<polyline fill="none" stroke="#ff6600" stroke-width="2" points="1088.5,-67.27 1082.5,-67.27 "/>
<text text-anchor="middle" x="1029" y="-61.27" font-family="Courier New" font-size="10.00" fill="#ff6600">conv_scroll: u16</text>
<text text-anchor="middle" x="1029" y="-50.27" font-family="Courier New" font-size="10.00" fill="#ff6600">u16::MAX = bottom</text>
<text text-anchor="middle" x="1029" y="-39.27" font-family="Courier New" font-size="10.00" fill="#ff6600">BgEvent scroll</text>
</g>
<!-- event_loop&#45;&gt;conv_scroll -->
<g id="edge6" class="edge">
<title>event_loop&#45;&gt;conv_scroll</title>
<path fill="none" stroke="#ff6600" stroke-width="1.5" stroke-dasharray="5,2" d="M929.8,-162.38C951.38,-138.75 982.53,-104.65 1004.14,-80.99"/>
<polygon fill="#ff6600" stroke="#ff6600" stroke-width="1.5" points="1006.91,-83.14 1011.07,-73.4 1001.74,-78.42 1006.91,-83.14"/>
</g>
<!-- title_bar -->
<g id="node12" class="node">
<title>title_bar</title>
<ellipse fill="#111111" stroke="#00ffff" stroke-width="2" cx="705" cy="-52.77" rx="88.28" ry="21.43"/>
<text text-anchor="middle" x="705" y="-55.77" font-family="Courier New" font-size="10.00" fill="#00ffff">title bar</text>
<text text-anchor="middle" x="705" y="-44.77" font-family="Courier New" font-size="10.00" fill="#00ffff">MCP:N &#160;model names</text>
</g>
<!-- event_loop&#45;&gt;title_bar -->
<g id="edge14" class="edge">
<title>event_loop&#45;&gt;title_bar</title>
<path fill="none" stroke="#00ffff" stroke-width="1.5" stroke-dasharray="5,2" d="M864.78,-164.48C846.4,-152.86 824.45,-138.73 805,-125.54 782.81,-110.49 758.36,-92.96 739.19,-78.99"/>
<polygon fill="#00ffff" stroke="#00ffff" stroke-width="1.5" points="741.19,-76.12 731.05,-73.04 737.06,-81.77 741.19,-76.12"/>
</g>
<!-- mcp_panel -->
<g id="node13" class="node">
<title>mcp_panel</title>
<ellipse fill="#111111" stroke="#cc00ff" stroke-width="2" cx="104" cy="-52.77" rx="88.28" ry="21.43"/>
<text text-anchor="middle" x="104" y="-55.77" font-family="Courier New" font-size="10.00" fill="#cc00ff">MCP sidebar</text>
<text text-anchor="middle" x="104" y="-44.77" font-family="Courier New" font-size="10.00" fill="#cc00ff">✓ server (N tools)</text>
</g>
<!-- event_loop&#45;&gt;mcp_panel -->
<g id="edge15" class="edge">
<title>event_loop&#45;&gt;mcp_panel</title>
<path fill="none" stroke="#cc00ff" stroke-width="1.5" stroke-dasharray="5,2" d="M817.06,-187.37C654.24,-182.42 312.34,-167.25 202,-125.54 175.83,-115.64 150.46,-96.73 132.09,-80.8"/>
<polygon fill="#cc00ff" stroke="#cc00ff" stroke-width="1.5" points="133.96,-77.78 124.17,-73.73 129.3,-83 133.96,-77.78"/>
</g>
<!-- conv_panel -->
<g id="node14" class="node">
<title>conv_panel</title>
<ellipse fill="#111111" stroke="#ff6600" stroke-width="2" cx="299" cy="-52.77" rx="88.28" ry="36.54"/>
<text text-anchor="middle" x="299" y="-66.77" font-family="Courier New" font-size="10.00" fill="#ff6600">conversation panel</text>
<text text-anchor="middle" x="299" y="-55.77" font-family="Courier New" font-size="10.00" fill="#ff6600">ActorStreaming</text>
<text text-anchor="middle" x="299" y="-44.77" font-family="Courier New" font-size="10.00" fill="#ff6600">CriticStreaming</text>
<text text-anchor="middle" x="299" y="-33.77" font-family="Courier New" font-size="10.00" fill="#ff6600">FinalAnswer</text>
</g>
<!-- event_loop&#45;&gt;conv_panel -->
<g id="edge16" class="edge">
<title>event_loop&#45;&gt;conv_panel</title>
<path fill="none" stroke="#ff6600" stroke-width="1.5" stroke-dasharray="5,2" d="M818.8,-183.99C694.29,-175.09 470.82,-155.51 396,-125.54 376.79,-117.84 357.96,-105.4 342.08,-93.02"/>
<polygon fill="#ff6600" stroke="#ff6600" stroke-width="1.5" points="344.05,-90.11 334.06,-86.58 339.67,-95.57 344.05,-90.11"/>
</g>
<!-- input_box -->
<g id="node15" class="node">
<title>input_box</title>
<ellipse fill="#111111" stroke="#00ff88" stroke-width="2" cx="502" cy="-52.77" rx="96.75" ry="28.98"/>
<text text-anchor="middle" x="502" y="-61.27" font-family="Courier New" font-size="10.00" fill="#00ff88">input box</text>
<text text-anchor="middle" x="502" y="-50.27" font-family="Courier New" font-size="10.00" fill="#00ff88">Normal / Editing</text>
<text text-anchor="middle" x="502" y="-39.27" font-family="Courier New" font-size="10.00" fill="#00ff88">i=edit &#160;Enter=submit</text>
</g>
<!-- event_loop&#45;&gt;input_box -->
<g id="edge17" class="edge">
<title>event_loop&#45;&gt;input_box</title>
<path fill="none" stroke="#00ff88" stroke-width="1.5" stroke-dasharray="5,2" d="M822.06,-180.31C761.02,-171.49 677,-155.01 608,-125.54 584.68,-115.58 561.09,-100.24 542.1,-86.29"/>
<polygon fill="#00ff88" stroke="#00ff88" stroke-width="1.5" points="544.09,-83.41 533.99,-80.21 539.89,-89.01 544.09,-83.41"/>
</g>
<!-- actor_loop -->
<g id="node9" class="node">
<title>actor_loop</title>
<ellipse fill="#1a001a" stroke="#ff00ff" stroke-width="2" cx="1507" cy="-190.53" rx="96.75" ry="28.98"/>
<text text-anchor="middle" x="1507" y="-199.03" font-family="Courier New" font-size="10.00" fill="#ff00ff">run_actor()</text>
<text text-anchor="middle" x="1507" y="-188.03" font-family="Courier New" font-size="10.00" fill="#ff00ff">OllamaClient::chat()</text>
<text text-anchor="middle" x="1507" y="-177.03" font-family="Courier New" font-size="10.00" fill="#ff00ff">tool_rounds loop</text>
</g>
<!-- submit&#45;&gt;actor_loop -->
<g id="edge7" class="edge">
<title>submit&#45;&gt;actor_loop</title>
<path fill="none" stroke="#ff00ff" stroke-width="1.5" d="M1226.16,-80.24C1245.07,-95.23 1270.27,-113.35 1295,-125.54 1334.42,-144.96 1380.91,-159.8 1420.29,-170.27"/>
<polygon fill="#ff00ff" stroke="#ff00ff" stroke-width="1.5" points="1419.58,-173.71 1430.14,-172.84 1421.35,-166.93 1419.58,-173.71"/>
</g>
<!-- bg_tx -->
<g id="node8" class="node">
<title>bg_tx</title>
<ellipse fill="#1a001a" stroke="#ff00ff" stroke-width="2" cx="1650" cy="-449.51" rx="75.82" ry="28.98"/>
<text text-anchor="middle" x="1650" y="-458.01" font-family="Courier New" font-size="10.00" fill="#ff00ff">UnboundedSender</text>
<text text-anchor="middle" x="1650" y="-447.01" font-family="Courier New" font-size="10.00" fill="#ff00ff">BgEvent</text>
<text text-anchor="middle" x="1650" y="-436.01" font-family="Courier New" font-size="10.00" fill="#ff00ff">channel(64)</text>
</g>
<!-- revision -->
<g id="node11" class="node">
<title>revision</title>
<path fill="#0d001a" stroke="#9900ff" stroke-width="2" d="M1450.4,-380.45C1450.4,-380.45 1318.6,-345.59 1318.6,-345.59 1312.8,-344.06 1312.8,-340.99 1318.6,-339.45 1318.6,-339.45 1450.4,-304.59 1450.4,-304.59 1456.2,-303.06 1467.8,-303.06 1473.6,-304.59 1473.6,-304.59 1605.4,-339.45 1605.4,-339.45 1611.2,-340.99 1611.2,-344.06 1605.4,-345.59 1605.4,-345.59 1473.6,-380.45 1473.6,-380.45 1467.8,-381.99 1456.2,-381.99 1450.4,-380.45"/>
<text text-anchor="middle" x="1462" y="-351.02" font-family="Courier New" font-size="10.00" fill="#9900ff">revision loop</text>
<text text-anchor="middle" x="1462" y="-340.02" font-family="Courier New" font-size="10.00" fill="#9900ff">0..=max_revision_rounds</text>
<text text-anchor="middle" x="1462" y="-329.02" font-family="Courier New" font-size="10.00" fill="#9900ff">score &lt; threshold?</text>
</g>
<!-- bg_tx&#45;&gt;revision -->
<g id="edge11" class="edge">
<title>bg_tx&#45;&gt;revision</title>
<path fill="none" stroke="#9900ff" stroke-width="1.5" d="M1608.28,-425.21C1582.31,-410.71 1548.54,-391.85 1520,-375.91"/>
<polygon fill="#9900ff" stroke="#9900ff" stroke-width="1.5" points="1521.36,-372.67 1510.93,-370.85 1517.95,-378.78 1521.36,-372.67"/>
</g>
<!-- actor_loop&#45;&gt;bg_tx -->
<g id="edge8" class="edge">
<title>actor_loop&#45;&gt;bg_tx</title>
<path fill="none" stroke="#ff00ff" stroke-width="1.5" d="M1546.38,-217.24C1573.27,-236.98 1607.28,-266.71 1626,-301.52 1644.13,-335.24 1649.31,-379.12 1650.47,-410.13"/>
<polygon fill="#ff00ff" stroke="#ff00ff" stroke-width="1.5" points="1646.98,-410.61 1650.72,-420.52 1653.97,-410.44 1646.98,-410.61"/>
<text text-anchor="middle" x="1674.5" y="-345.32" font-family="Courier New" font-size="9.00" fill="#ff00ff">ActorChunk</text>
<text text-anchor="middle" x="1674.5" y="-335.32" font-family="Courier New" font-size="9.00" fill="#ff00ff">ToolCall</text>
</g>
<!-- critic_loop -->
<g id="node10" class="node">
<title>critic_loop</title>
<ellipse fill="#1a001a" stroke="#cc00ff" stroke-width="2" cx="1601" cy="-52.77" rx="92.76" ry="28.98"/>
<text text-anchor="middle" x="1601" y="-61.27" font-family="Courier New" font-size="10.00" fill="#cc00ff">run_critic()</text>
<text text-anchor="middle" x="1601" y="-50.27" font-family="Courier New" font-size="10.00" fill="#cc00ff">chat() stream=true</text>
<text text-anchor="middle" x="1601" y="-39.27" font-family="Courier New" font-size="10.00" fill="#cc00ff">parse_critic_json()</text>
</g>
<!-- actor_loop&#45;&gt;critic_loop -->
<g id="edge9" class="edge">
<title>actor_loop&#45;&gt;critic_loop</title>
<path fill="none" stroke="#cc00ff" stroke-width="1.5" d="M1526.02,-162.06C1540.48,-141.17 1560.5,-112.26 1576.21,-89.57"/>
<polygon fill="#cc00ff" stroke="#cc00ff" stroke-width="1.5" points="1579.19,-91.42 1582.01,-81.2 1573.44,-87.43 1579.19,-91.42"/>
<text text-anchor="middle" x="1582" y="-136.34" font-family="Courier New" font-size="9.00" fill="#cc00ff">final response</text>
</g>
<!-- critic_loop&#45;&gt;bg_tx -->
<g id="edge10" class="edge">
<title>critic_loop&#45;&gt;bg_tx</title>
<path fill="none" stroke="#cc00ff" stroke-width="1.5" d="M1617.03,-81.57C1641.74,-126.2 1688.06,-217.38 1705,-301.52 1712.19,-337.25 1717.54,-349.3 1705,-383.52 1700.83,-394.91 1693.68,-405.67 1685.9,-415.04"/>
<polygon fill="#cc00ff" stroke="#cc00ff" stroke-width="1.5" points="1683.25,-412.75 1679.26,-422.56 1688.5,-417.38 1683.25,-412.75"/>
<text text-anchor="middle" x="1729" y="-276.32" font-family="Courier New" font-size="9.00" fill="#cc00ff">CriticChunk</text>
<text text-anchor="middle" x="1729" y="-266.32" font-family="Courier New" font-size="9.00" fill="#cc00ff">CriticDone</text>
</g>
<!-- revision&#45;&gt;event_loop -->
<g id="edge13" class="edge">
<title>revision&#45;&gt;event_loop</title>
<path fill="none" stroke="#00ff41" stroke-width="1.5" d="M1386.88,-321.29C1280.91,-292.76 1088.57,-240.96 981.73,-212.19"/>
<polygon fill="#00ff41" stroke="#00ff41" stroke-width="1.5" points="982.55,-208.79 971.98,-209.57 980.73,-215.55 982.55,-208.79"/>
<text text-anchor="middle" x="1270" y="-271.32" font-family="Courier New" font-size="9.00" fill="#00ff41">ProcessingDone</text>
</g>
<!-- revision&#45;&gt;actor_loop -->
<g id="edge12" class="edge">
<title>revision&#45;&gt;actor_loop</title>
<path fill="none" stroke="#ff00ff" stroke-width="1.5" d="M1473.12,-304.45C1479.97,-281.62 1488.72,-252.44 1495.62,-229.47"/>
<polygon fill="#ff00ff" stroke="#ff00ff" stroke-width="1.5" points="1499.02,-230.3 1498.54,-219.71 1492.32,-228.28 1499.02,-230.3"/>
<text text-anchor="middle" x="1500" y="-271.32" font-family="Courier New" font-size="9.00" fill="#ff00ff">revise</text>
</g>
</g>
</svg>
