<?xml version="1.0" encoding="UTF-8" standalone="no"?>
<!DOCTYPE svg PUBLIC "-//W3C//DTD SVG 1.1//EN"
 "http://www.w3.org/Graphics/SVG/1.1/DTD/svg11.dtd">
<!-- Generated by graphviz version 2.43.0 (0)
 -->
<!-- Title: GRYPHGEN_Overview Pages: 1 -->
<svg width="1273pt" height="137pt"
 viewBox="0.00 0.00 1273.00 137.00" xmlns="http://www.w3.org/2000/svg" xmlns:xlink="http://www.w3.org/1999/xlink">
<g id="graph0" class="graph" transform="scale(1 1) rotate(0) translate(4 133)">
<title>GRYPHGEN_Overview</title>
<polygon fill="#0d1117" stroke="transparent" points="-4,4 -4,-133 1269,-133 1269,4 -4,4"/>
<g id="clust1" class="cluster">
<title>cluster_core</title>
<polygon fill="#0d1117" stroke="black" points="8,-8 8,-85 362,-85 362,-8 8,-8"/>
<text text-anchor="middle" x="185" y="-69.8" font-family="Helvetica,sans-Serif" font-size="14.00" fill="#39ff14">Core Modules</text>
</g>
<g id="clust2" class="cluster">
<title>cluster_services</title>
<polygon fill="#0d1117" stroke="black" points="370,-8 370,-85 837,-85 837,-8 370,-8"/>
<text text-anchor="middle" x="603.5" y="-69.8" font-family="Helvetica,sans-Serif" font-size="14.00" fill="#39ff14">Services &amp; Servers</text>
</g>
<g id="clust3" class="cluster">
<title>cluster_research</title>
<polygon fill="#0d1117" stroke="black" points="845,-8 845,-85 1257,-85 1257,-8 845,-8"/>
<text text-anchor="middle" x="1051" y="-69.8" font-family="Helvetica,sans-Serif" font-size="14.00" fill="#39ff14">Research &amp; Analysis</text>
</g>
<!-- root -->
<g id="node1" class="node">
<title>root</title>
<path fill="#161b22" stroke="#39ff14" stroke-width="2" d="M644.39,-116.42C644.39,-116.42 630.25,-123.58 630.25,-123.58 624.9,-126.29 613.55,-129 607.55,-129 607.55,-129 560.45,-129 560.45,-129 554.45,-129 543.1,-126.29 537.75,-123.58 537.75,-123.58 523.61,-116.42 523.61,-116.42 518.26,-113.71 518.26,-108.29 523.61,-105.58 523.61,-105.58 537.75,-98.42 537.75,-98.42 543.1,-95.71 554.45,-93 560.45,-93 560.45,-93 607.55,-93 607.55,-93 613.55,-93 624.9,-95.71 630.25,-98.42 630.25,-98.42 644.39,-105.58 644.39,-105.58 649.74,-108.29 649.74,-113.71 644.39,-116.42"/>
<text text-anchor="middle" x="584" y="-107.3" font-family="Helvetica,sans-Serif" font-size="14.00" fill="#ffffff">GRYPHGEN</text>
</g>
<!-- agentic -->
<g id="node2" class="node">
<title>agentic</title>
<path fill="#161b22" stroke="#00d4ff" d="M342,-54C342,-54 282,-54 282,-54 276,-54 270,-48 270,-42 270,-42 270,-28 270,-28 270,-22 276,-16 282,-16 282,-16 342,-16 342,-16 348,-16 354,-22 354,-28 354,-28 354,-42 354,-42 354,-48 348,-54 342,-54"/>
<text text-anchor="middle" x="312" y="-38.8" font-family="Helvetica,sans-Serif" font-size="14.00" fill="#ffffff">agentic</text>
<text text-anchor="middle" x="312" y="-23.8" font-family="Helvetica,sans-Serif" font-size="14.00" fill="#ffffff">(Python/AI)</text>
</g>
<!-- root&#45;&gt;agentic -->
<g id="edge1" class="edge">
<title>root&#45;&gt;agentic</title>
<path fill="none" stroke="#ff00ff" d="M520.48,-107.02C466.18,-103.7 392.72,-97.11 366,-85 353.93,-79.53 342.7,-70.34 333.64,-61.39"/>
<polygon fill="#ff00ff" stroke="#ff00ff" points="326.58,-54.01 336.74,-58.12 330.03,-57.62 333.49,-61.23 333.49,-61.23 333.49,-61.23 330.03,-57.62 330.24,-64.34 326.58,-54.01 326.58,-54.01"/>
</g>
<!-- gstruct -->
<g id="node3" class="node">
<title>gstruct</title>
<path fill="#161b22" stroke="#00d4ff" d="M239.5,-54C239.5,-54 152.5,-54 152.5,-54 146.5,-54 140.5,-48 140.5,-42 140.5,-42 140.5,-28 140.5,-28 140.5,-22 146.5,-16 152.5,-16 152.5,-16 239.5,-16 239.5,-16 245.5,-16 251.5,-22 251.5,-28 251.5,-28 251.5,-42 251.5,-42 251.5,-48 245.5,-54 239.5,-54"/>
<text text-anchor="middle" x="196" y="-38.8" font-family="Helvetica,sans-Serif" font-size="14.00" fill="#ffffff">gstruct</text>
<text text-anchor="middle" x="196" y="-23.8" font-family="Helvetica,sans-Serif" font-size="14.00" fill="#ffffff">(Structure/LLM)</text>
</g>
<!-- root&#45;&gt;gstruct -->
<g id="edge2" class="edge">
<title>root&#45;&gt;gstruct</title>
<path fill="none" stroke="#ff00ff" d="M516.4,-109.2C435.74,-107.48 306.11,-102.06 261,-85 246.75,-79.61 232.97,-70.07 221.79,-60.83"/>
<polygon fill="#ff00ff" stroke="#ff00ff" points="214.15,-54.21 224.66,-57.35 217.93,-57.48 221.71,-60.75 221.71,-60.75 221.71,-60.75 217.93,-57.48 218.77,-64.16 214.15,-54.21 214.15,-54.21"/>
</g>
<!-- perl_pipes -->
<g id="node4" class="node">
<title>perl_pipes</title>
<path fill="#161b22" stroke="#00d4ff" d="M110,-54C110,-54 28,-54 28,-54 22,-54 16,-48 16,-42 16,-42 16,-28 16,-28 16,-22 22,-16 28,-16 28,-16 110,-16 110,-16 116,-16 122,-22 122,-28 122,-28 122,-42 122,-42 122,-48 116,-54 110,-54"/>
<text text-anchor="middle" x="69" y="-38.8" font-family="Helvetica,sans-Serif" font-size="14.00" fill="#ffffff">perl_pipes</text>
<text text-anchor="middle" x="69" y="-23.8" font-family="Helvetica,sans-Serif" font-size="14.00" fill="#ffffff">(Perl/Backend)</text>
</g>
<!-- root&#45;&gt;perl_pipes -->
<g id="edge3" class="edge">
<title>root&#45;&gt;perl_pipes</title>
<path fill="none" stroke="#ff00ff" d="M517.72,-108.52C400.84,-105.58 167.1,-98.14 132,-85 118.04,-79.77 104.69,-70.29 93.9,-61.04"/>
<polygon fill="#ff00ff" stroke="#ff00ff" points="86.18,-54.1 96.62,-57.44 89.89,-57.44 93.61,-60.79 93.61,-60.79 93.61,-60.79 89.89,-57.44 90.6,-64.13 86.18,-54.1 86.18,-54.1"/>
</g>
<!-- mcp -->
<g id="node5" class="node">
<title>mcp</title>
<path fill="#161b22" stroke="#00d4ff" d="M817.5,-54C817.5,-54 674.5,-54 674.5,-54 668.5,-54 662.5,-48 662.5,-42 662.5,-42 662.5,-28 662.5,-28 662.5,-22 668.5,-16 674.5,-16 674.5,-16 817.5,-16 817.5,-16 823.5,-16 829.5,-22 829.5,-28 829.5,-28 829.5,-42 829.5,-42 829.5,-48 823.5,-54 817.5,-54"/>
<text text-anchor="middle" x="746" y="-38.8" font-family="Helvetica,sans-Serif" font-size="14.00" fill="#ffffff">MCP_SERVER</text>
<text text-anchor="middle" x="746" y="-23.8" font-family="Helvetica,sans-Serif" font-size="14.00" fill="#ffffff">(Model Context Protocol)</text>
</g>
<!-- root&#45;&gt;mcp -->
<g id="edge4" class="edge">
<title>root&#45;&gt;mcp</title>
<path fill="none" stroke="#ff00ff" d="M625.6,-95.97C634.72,-92.61 644.26,-88.86 653,-85 670.44,-77.29 689.14,-67.71 705.16,-59.07"/>
<polygon fill="#ff00ff" stroke="#ff00ff" points="714.26,-54.12 707.63,-62.85 709.87,-56.51 705.47,-58.9 705.47,-58.9 705.47,-58.9 709.87,-56.51 703.32,-54.95 714.26,-54.12 714.26,-54.12"/>
</g>
<!-- ollama -->
<g id="node6" class="node">
<title>ollama</title>
<path fill="#161b22" stroke="#00d4ff" d="M632,-54C632,-54 536,-54 536,-54 530,-54 524,-48 524,-42 524,-42 524,-28 524,-28 524,-22 530,-16 536,-16 536,-16 632,-16 632,-16 638,-16 644,-22 644,-28 644,-28 644,-42 644,-42 644,-48 638,-54 632,-54"/>
<text text-anchor="middle" x="584" y="-38.8" font-family="Helvetica,sans-Serif" font-size="14.00" fill="#ffffff">ollama&#45;duel</text>
<text text-anchor="middle" x="584" y="-23.8" font-family="Helvetica,sans-Serif" font-size="14.00" fill="#ffffff">(Rust/Local LLM)</text>
</g>
<!-- root&#45;&gt;ollama -->
<g id="edge5" class="edge">
<title>root&#45;&gt;ollama</title>
<path fill="none" stroke="#ff00ff" d="M584,-92.84C584,-84.31 584,-73.78 584,-64.12"/>
<polygon fill="#ff00ff" stroke="#ff00ff" points="584,-54.1 588.5,-64.1 584,-59.1 584,-64.1 584,-64.1 584,-64.1 584,-59.1 579.5,-64.1 584,-54.1 584,-54.1"/>
</g>
<!-- rag -->
<g id="node7" class="node">
<title>rag</title>
<path fill="#161b22" stroke="#00d4ff" d="M493.5,-54C493.5,-54 390.5,-54 390.5,-54 384.5,-54 378.5,-48 378.5,-42 378.5,-42 378.5,-28 378.5,-28 378.5,-22 384.5,-16 390.5,-16 390.5,-16 493.5,-16 493.5,-16 499.5,-16 505.5,-22 505.5,-28 505.5,-28 505.5,-42 505.5,-42 505.5,-48 499.5,-54 493.5,-54"/>
<text text-anchor="middle" x="442" y="-38.8" font-family="Helvetica,sans-Serif" font-size="14.00" fill="#ffffff">rag</text>
<text text-anchor="middle" x="442" y="-23.8" font-family="Helvetica,sans-Serif" font-size="14.00" fill="#ffffff">(Knowledge Base)</text>
</g>
<!-- root&#45;&gt;rag -->
<g id="edge6" class="edge">
<title>root&#45;&gt;rag</title>
<path fill="none" stroke="#ff00ff" d="M541.35,-96.39C532.47,-93.05 523.3,-89.21 515,-85 500.95,-77.88 486.37,-68.53 473.96,-59.92"/>
<polygon fill="#ff00ff" stroke="#ff00ff" points="465.76,-54.11 476.52,-56.21 469.84,-57 473.92,-59.89 473.92,-59.89 473.92,-59.89 469.84,-57 471.32,-63.56 465.76,-54.11 465.76,-54.11"/>
</g>
<!-- jan -->
<g id="node8" class="node">
<title>jan</title>
<path fill="#161b22" stroke="#00d4ff" d="M1236.5,-54C1236.5,-54 1103.5,-54 1103.5,-54 1097.5,-54 1091.5,-48 1091.5,-42 1091.5,-42 1091.5,-28 1091.5,-28 1091.5,-22 1097.5,-16 1103.5,-16 1103.5,-16 1236.5,-16 1236.5,-16 1242.5,-16 1248.5,-22 1248.5,-28 1248.5,-28 1248.5,-42 1248.5,-42 1248.5,-48 1242.5,-54 1236.5,-54"/>
<text text-anchor="middle" x="1170" y="-38.8" font-family="Helvetica,sans-Serif" font-size="14.00" fill="#ffffff">jan13/jan14</text>
<text text-anchor="middle" x="1170" y="-23.8" font-family="Helvetica,sans-Serif" font-size="14.00" fill="#ffffff">(Agents/Modernization)</text>
</g>
<!-- root&#45;&gt;jan -->
<g id="edge7" class="edge">
<title>root&#45;&gt;jan</title>
<path fill="none" stroke="#ff00ff" d="M654.34,-110.44C772.27,-110.52 1004.67,-107.65 1083,-85 1101.79,-79.57 1120.92,-69.4 1136.44,-59.73"/>
<polygon fill="#ff00ff" stroke="#ff00ff" points="1145.13,-54.14 1139.16,-63.33 1140.93,-56.84 1136.72,-59.55 1136.72,-59.55 1136.72,-59.55 1140.93,-56.84 1134.29,-55.77 1145.13,-54.14 1145.13,-54.14"/>
</g>
<!-- aug -->
<g id="node9" class="node">
<title>aug</title>
<path fill="#161b22" stroke="#00d4ff" d="M1061.5,-54C1061.5,-54 984.5,-54 984.5,-54 978.5,-54 972.5,-48 972.5,-42 972.5,-42 972.5,-28 972.5,-28 972.5,-22 978.5,-16 984.5,-16 984.5,-16 1061.5,-16 1061.5,-16 1067.5,-16 1073.5,-22 1073.5,-28 1073.5,-28 1073.5,-42 1073.5,-42 1073.5,-48 1067.5,-54 1061.5,-54"/>
<text text-anchor="middle" x="1023" y="-38.8" font-family="Helvetica,sans-Serif" font-size="14.00" fill="#ffffff">Aug_20_2025</text>
<text text-anchor="middle" x="1023" y="-23.8" font-family="Helvetica,sans-Serif" font-size="14.00" fill="#ffffff">(Novelty LLM)</text>
</g>
<!-- root&#45;&gt;aug -->
<g id="edge8" class="edge">
<title>root&#45;&gt;aug</title>
<path fill="none" stroke="#ff00ff" d="M654.3,-110.52C748.34,-110.34 909.57,-106.7 964,-85 977.08,-79.79 989.42,-70.52 999.4,-61.44"/>
<polygon fill="#ff00ff" stroke="#ff00ff" points="1006.86,-54.28 1002.76,-64.45 1003.26,-57.74 999.65,-61.2 999.65,-61.2 999.65,-61.2 1003.26,-57.74 996.53,-57.95 1006.86,-54.28 1006.86,-54.28"/>
</g>
<!-- calisota -->
<g id="node10" class="node">
<title>calisota</title>
<path fill="#161b22" stroke="#00d4ff" d="M942.5,-54C942.5,-54 865.5,-54 865.5,-54 859.5,-54 853.5,-48 853.5,-42 853.5,-42 853.5,-28 853.5,-28 853.5,-22 859.5,-16 865.5,-16 865.5,-16 942.5,-16 942.5,-16 948.5,-16 954.5,-22 954.5,-28 954.5,-28 954.5,-42 954.5,-42 954.5,-48 948.5,-54 942.5,-54"/>
<text text-anchor="middle" x="904" y="-38.8" font-family="Helvetica,sans-Serif" font-size="14.00" fill="#ffffff">calisota&#45;ai</text>
<text text-anchor="middle" x="904" y="-23.8" font-family="Helvetica,sans-Serif" font-size="14.00" fill="#ffffff">(August 2025)</text>
</g>
<!-- root&#45;&gt;calisota -->
<g id="edge9" class="edge">
<title>root&#45;&gt;calisota</title>
<path fill="none" stroke="#ff00ff" d="M648.86,-107.8C713.31,-104.88 807.27,-98.44 841,-85 854.75,-79.53 867.99,-70.09 878.75,-60.96"/>
<polygon fill="#ff00ff" stroke="#ff00ff" points="886.47,-54.1 881.98,-64.1 882.73,-57.42 878.99,-60.74 878.99,-60.74 878.99,-60.74 882.73,-57.42 876,-57.38 886.47,-54.1 886.47,-54.1"/>
</g>
</g>
</svg>
